<svg width="225" height="76" viewBox="0 0 225 76" fill="none" xmlns="http://www.w3.org/2000/svg">
<path d="M132.014 57.4414C123.337 63.8375 110.759 67.25 99.93 67.25C84.7459 67.25 71.0763 61.634 60.7347 52.2934C59.9222 51.5589 60.6502 50.5578 61.6252 51.1299C72.7858 57.6234 86.5854 61.5299 100.84 61.5299C110.454 61.5299 121.029 59.5409 130.753 55.4134C132.222 54.7894 133.451 56.3754 132.014 57.4414Z" fill="white"/>
<path d="M135.622 53.3137C134.517 51.8967 128.29 52.6442 125.495 52.9757C124.643 53.0797 124.513 52.3387 125.28 51.8057C130.24 48.3151 138.378 49.3226 139.327 50.4926C140.276 51.6692 139.08 59.8267 134.419 63.7203C133.704 64.3183 133.022 63.9998 133.34 63.2068C134.387 60.5937 136.733 54.7372 135.622 53.3137Z" fill="white"/>
<path d="M125.69 27.164V23.7709C125.69 23.2574 126.08 22.9129 126.548 22.9129H141.738C142.226 22.9129 142.616 23.2639 142.616 23.7709V26.6765C142.609 27.164 142.2 27.801 141.472 28.8085L133.6 40.0471C136.525 39.9756 139.613 40.4111 142.265 41.9061C142.863 42.2441 143.025 42.7381 143.071 43.2256V46.8462C143.071 47.3402 142.525 47.9187 141.953 47.6197C137.279 45.1691 131.072 44.9026 125.904 47.6457C125.378 47.9317 124.825 47.3597 124.825 46.8657V43.4271C124.825 42.8746 124.832 41.9321 125.384 41.0936L134.504 28.0155H126.567C126.08 28.0155 125.69 27.671 125.69 27.164Z" fill="white"/>
<path d="M70.2759 48.3348H65.6544C65.2124 48.3023 64.8614 47.9708 64.8289 47.5483V23.8296C64.8289 23.3551 65.2254 22.9781 65.7194 22.9781H70.0289C70.4774 22.9976 70.8349 23.3421 70.8674 23.7711V26.8716H70.9519C72.0765 23.8751 74.189 22.4776 77.036 22.4776C79.9285 22.4776 81.7355 23.8751 83.0355 26.8716C84.1535 23.8751 86.695 22.4776 89.4186 22.4776C91.3556 22.4776 93.4746 23.2771 94.7681 25.0711C96.2306 27.0666 95.9316 29.9657 95.9316 32.5072L95.9251 47.4768C95.9251 47.9513 95.5286 48.3348 95.0346 48.3348H90.4196C89.9581 48.3023 89.5876 47.9318 89.5876 47.4768V34.9057C89.5876 33.9047 89.6786 31.4087 89.4576 30.4597C89.1131 28.8672 88.0796 28.4187 86.7406 28.4187C85.6225 28.4187 84.4525 29.1662 83.978 30.3622C83.5035 31.5582 83.549 33.5602 83.549 34.9057V47.4768C83.549 47.9513 83.1525 48.3348 82.6585 48.3348H78.0435C77.5755 48.3023 77.2115 47.9318 77.2115 47.4768L77.205 34.9057C77.205 32.2602 77.6405 28.3667 74.358 28.3667C71.0364 28.3667 71.1664 32.1627 71.1664 34.9057V47.4768C71.1664 47.9513 70.7699 48.3348 70.2759 48.3348Z" fill="white"/>
<path d="M155.693 22.4776C162.551 22.4776 166.262 28.3667 166.262 35.8547C166.262 43.0893 162.161 48.8288 155.693 48.8288C148.959 48.8288 145.293 42.9398 145.293 35.6012C145.293 28.2171 149.005 22.4776 155.693 22.4776ZM155.732 27.3201C152.326 27.3201 152.112 31.9612 152.112 34.8537C152.112 37.7527 152.066 43.9408 155.693 43.9408C159.275 43.9408 159.444 38.9488 159.444 35.9067C159.444 33.9047 159.359 31.5127 158.755 29.6147C158.235 27.9637 157.201 27.3201 155.732 27.3201Z" fill="white"/>
<path d="M175.154 48.3348H170.552C170.091 48.3023 169.72 47.9318 169.72 47.4768L169.714 23.7516C169.753 23.3161 170.136 22.9781 170.604 22.9781H174.888C175.291 22.9976 175.622 23.2706 175.713 23.6411V27.2681H175.798C177.091 24.0246 178.905 22.4776 182.096 22.4776C184.17 22.4776 186.191 23.2251 187.491 25.2726C188.7 27.1706 188.7 30.3622 188.7 32.6567V47.5873C188.648 48.0033 188.265 48.3348 187.81 48.3348H183.175C182.753 48.3023 182.402 47.9903 182.356 47.5873V34.7042C182.356 32.1107 182.655 28.3146 179.464 28.3146C178.339 28.3146 177.306 29.0687 176.792 30.2127C176.142 31.6622 176.058 33.1052 176.058 34.7042V47.4768C176.051 47.9513 175.648 48.3348 175.154 48.3348Z" fill="white"/>
<path d="M113.579 37.0051V36.0041C110.238 36.0041 106.709 36.7191 106.709 40.6582C106.709 42.6537 107.742 44.0057 109.517 44.0057C110.817 44.0057 111.98 43.2062 112.715 41.9062C113.625 40.3072 113.579 38.8057 113.579 37.0051ZM118.24 48.2697C117.935 48.5427 117.493 48.5622 117.148 48.3802C115.614 47.1062 115.341 46.5147 114.496 45.2992C111.961 47.8862 110.167 48.6597 106.878 48.6597C102.991 48.6597 99.9619 46.2612 99.9619 41.4577C99.9619 37.7071 101.996 35.1526 104.889 33.9046C107.398 32.7996 110.901 32.6046 113.579 32.2991V31.7011C113.579 30.6026 113.664 29.3026 113.02 28.3536C112.455 27.502 111.376 27.151 110.427 27.151C108.665 27.151 107.092 28.0546 106.709 29.9266C106.631 30.3426 106.325 30.7521 105.909 30.7716L101.424 30.2906C101.047 30.2061 100.631 29.9006 100.735 29.3221C101.769 23.888 106.676 22.25 111.07 22.25C113.319 22.25 116.258 22.848 118.032 24.551C120.281 26.6505 120.067 29.4521 120.067 32.5006V39.7027C120.067 41.8672 120.964 42.8162 121.809 43.9862C122.108 44.4022 122.173 44.9027 121.796 45.2147C120.853 46.0012 119.176 47.4637 118.253 48.2827L118.24 48.2697Z" fill="white"/>
<path d="M52.9926 37.0051V36.0041C49.6516 36.0041 46.122 36.7191 46.122 40.6582C46.122 42.6537 47.1556 44.0057 48.9301 44.0057C50.2301 44.0057 51.3936 43.2062 52.1281 41.9062C53.0381 40.3072 52.9926 38.8057 52.9926 37.0051ZM57.6531 48.2697C57.3476 48.5427 56.9056 48.5622 56.5611 48.3802C55.0271 47.1062 54.7541 46.5147 53.9091 45.2992C51.3741 47.8862 49.5801 48.6597 46.291 48.6597C42.404 48.6597 39.375 46.2612 39.375 41.4577C39.375 37.7071 41.4095 35.1526 44.302 33.9046C46.811 32.7996 50.3146 32.6046 52.9926 32.2991V31.7011C52.9926 30.6026 53.0771 29.3026 52.4336 28.3536C51.8681 27.502 50.7891 27.151 49.8401 27.151C48.0786 27.151 46.5055 28.0546 46.122 29.9266C46.044 30.3426 45.7385 30.7521 45.3225 30.7716L40.8375 30.2906C40.4605 30.2061 40.0445 29.9006 40.1485 29.3221C41.182 23.888 46.0895 22.25 50.4836 22.25C52.7326 22.25 55.6706 22.848 57.4451 24.551C59.6941 26.6505 59.4796 29.4521 59.4796 32.5006V39.7027C59.4796 41.8672 60.3766 42.8162 61.2216 43.9862C61.5207 44.4022 61.5856 44.9027 61.2086 45.2147C60.2661 46.0012 58.5891 47.4637 57.6661 48.2827L57.6531 48.2697Z" fill="white"/>
</svg>
