<svg width="225" height="76" viewBox="0 0 225 76" fill="none" xmlns="http://www.w3.org/2000/svg">
<path d="M174.911 45.4529C174.792 45.4579 174.678 45.5008 174.586 45.5752C174.494 45.6496 174.428 45.7517 174.398 45.8664C173.104 49.5587 171.355 51.7584 169.916 51.7584C169.089 51.7584 168.754 50.8364 168.754 49.3892C168.754 45.7713 170.921 38.1013 172.012 34.6033C172.133 34.2398 172.202 33.8613 172.219 33.4786C172.219 32.4615 171.665 31.9612 170.288 31.9612C168.804 31.9612 167.208 32.54 165.653 35.269C165.115 32.8708 163.495 31.8206 161.225 31.8206C158.603 31.8206 156.073 33.5076 153.989 36.2407C151.905 38.9737 149.441 39.871 147.613 39.4286C148.94 36.1828 149.432 33.7598 149.432 31.957C149.432 29.133 148.039 27.4295 145.781 27.4295C142.354 27.4295 140.377 30.7001 140.377 34.1402C140.377 36.7989 141.585 39.5154 144.235 40.8592C142.011 45.8871 138.769 50.4311 137.537 50.4311C135.945 50.4311 135.469 42.6454 135.569 37.0759C135.627 33.8797 135.891 33.7185 135.891 32.7509C135.891 32.1969 135.531 31.8165 134.084 31.8165C130.714 31.8165 129.672 34.6694 129.511 37.9483C129.461 39.1932 129.267 40.428 128.932 41.6283C127.522 46.6561 124.62 50.4684 122.73 50.4684C121.854 50.4684 121.614 49.5918 121.614 48.4423C121.614 44.8244 123.64 40.3051 123.64 36.4515C123.64 33.6151 122.399 31.8247 120.055 31.8247C117.297 31.8247 113.646 35.1077 110.194 41.2603C111.331 36.5508 111.798 31.9901 108.432 31.9901C107.703 32.0006 106.987 32.1864 106.344 32.5318C106.128 32.6327 105.948 32.7963 105.826 33.0013C105.704 33.2063 105.647 33.4433 105.662 33.6812C105.985 38.6967 101.622 51.5393 97.4836 51.5393C96.7311 51.5393 96.3672 50.7123 96.3672 49.4099C96.3672 45.7837 98.5256 38.1344 99.613 34.6281C99.742 34.2451 99.8144 33.8453 99.828 33.4414C99.828 32.4822 99.2326 31.9901 97.8888 31.9901C96.4127 31.9901 94.8084 32.5525 93.262 35.2731C92.7204 32.875 91.0954 31.8247 88.8296 31.8247C85.1083 31.8247 80.9736 35.7569 79.1295 40.884C76.6859 47.727 71.7614 54.3385 65.1293 54.3385C59.1133 54.3385 55.9378 49.3313 55.9378 41.4215C55.9378 29.9972 64.323 20.665 70.5417 20.665C73.5145 20.665 74.9369 22.5587 74.9369 25.4655C74.9369 28.9841 72.9729 30.6174 72.9729 31.957C72.9729 32.3705 73.3119 32.784 73.99 32.784C76.6942 32.784 79.8738 29.6085 79.8738 25.2753C79.8738 20.942 76.3468 17.75 70.1241 17.75C59.8451 17.75 49.5 28.0869 49.5 41.3471C49.5 51.8907 54.7015 58.25 63.6987 58.25C69.8346 58.25 75.1974 53.4785 78.0876 47.9131C78.4142 52.5275 80.5105 54.9422 83.7067 54.9422C86.5472 54.9422 88.8461 53.2511 90.6034 50.274C91.2774 53.3875 93.0842 54.9091 95.4038 54.9091C98.0749 54.9091 100.312 53.218 102.433 50.0714C102.4 52.5523 102.962 54.8636 105.104 54.8636C106.113 54.8636 107.32 54.6279 107.535 53.7472C109.789 44.4275 115.358 36.8195 117.045 36.8195C117.549 36.8195 117.69 37.3074 117.69 37.8822C117.69 40.4126 115.904 45.6059 115.904 48.9178C115.904 52.4985 117.425 54.8678 120.572 54.8678C124.058 54.8678 127.601 50.6007 129.962 44.3613C130.702 50.1913 132.298 54.8926 134.8 54.8926C137.868 54.8926 143.317 48.4341 146.621 41.5952C148.413 41.859 150.239 41.4303 151.727 40.3961C150.91 42.439 150.482 44.617 150.466 46.8174C150.466 53.1642 153.497 54.9422 156.106 54.9422C158.942 54.9422 161.241 53.2511 163.003 50.274C163.581 52.9575 165.07 54.9008 167.795 54.9008C172.062 54.9008 175.771 50.5387 175.771 46.958C175.787 46.0152 175.382 45.4529 174.911 45.4529ZM86.3157 51.4276C84.5915 51.4276 83.9175 49.691 83.9175 47.1027C83.9175 42.6082 86.9938 35.1119 90.2437 35.1119C91.666 35.1119 92.1994 36.7658 92.1994 38.8331C92.1994 43.3855 89.2761 51.4276 86.3157 51.4276ZM145.36 38.0103C144.402 36.7572 143.907 35.2119 143.958 33.6358C143.958 31.8041 144.628 30.2577 145.43 30.2577C146.232 30.2577 146.48 31.0474 146.48 32.1472C146.476 33.9831 145.819 36.6665 145.36 38.0103ZM158.727 51.4276C157.003 51.4276 156.329 49.4305 156.329 47.1027C156.329 42.7653 159.405 35.1119 162.68 35.1119C164.102 35.1119 164.607 36.7658 164.607 38.8331C164.607 43.3855 161.733 51.4276 158.727 51.4276Z" fill="white"/>
<path d="M174.911 45.4529C174.792 45.4579 174.678 45.5008 174.586 45.5752C174.494 45.6496 174.428 45.7517 174.398 45.8664C173.104 49.5587 171.355 51.7584 169.916 51.7584C169.089 51.7584 168.754 50.8364 168.754 49.3892C168.754 45.7713 170.921 38.1013 172.012 34.6033C172.133 34.2398 172.202 33.8613 172.219 33.4786C172.219 32.4615 171.665 31.9612 170.288 31.9612C168.804 31.9612 167.208 32.54 165.653 35.269C165.115 32.8708 163.495 31.8206 161.225 31.8206C158.603 31.8206 156.073 33.5076 153.989 36.2407C151.905 38.9737 149.441 39.871 147.613 39.4286C148.94 36.1828 149.432 33.7598 149.432 31.957C149.432 29.133 148.039 27.4295 145.781 27.4295C142.354 27.4295 140.377 30.7001 140.377 34.1402C140.377 36.7989 141.585 39.5154 144.235 40.8592C142.011 45.8871 138.769 50.4311 137.537 50.4311C135.945 50.4311 135.469 42.6454 135.569 37.0759C135.627 33.8797 135.891 33.7185 135.891 32.7509C135.891 32.1969 135.531 31.8165 134.084 31.8165C130.714 31.8165 129.672 34.6694 129.511 37.9483C129.461 39.1932 129.267 40.428 128.932 41.6283C127.522 46.6561 124.62 50.4684 122.73 50.4684C121.854 50.4684 121.614 49.5918 121.614 48.4423C121.614 44.8244 123.64 40.3051 123.64 36.4515C123.64 33.6151 122.399 31.8247 120.055 31.8247C117.297 31.8247 113.646 35.1077 110.194 41.2603C111.331 36.5508 111.798 31.9901 108.432 31.9901C107.703 32.0006 106.987 32.1864 106.344 32.5318C106.128 32.6327 105.948 32.7963 105.826 33.0013C105.704 33.2063 105.647 33.4433 105.662 33.6812C105.985 38.6967 101.622 51.5393 97.4836 51.5393C96.7311 51.5393 96.3672 50.7123 96.3672 49.4099C96.3672 45.7837 98.5256 38.1344 99.613 34.6281C99.742 34.2451 99.8144 33.8453 99.828 33.4414C99.828 32.4822 99.2326 31.9901 97.8888 31.9901C96.4127 31.9901 94.8084 32.5525 93.262 35.2731C92.7204 32.875 91.0954 31.8247 88.8296 31.8247C85.1083 31.8247 80.9736 35.7569 79.1295 40.884C76.6859 47.727 71.7614 54.3385 65.1293 54.3385C59.1133 54.3385 55.9378 49.3313 55.9378 41.4215C55.9378 29.9972 64.323 20.665 70.5417 20.665C73.5145 20.665 74.9369 22.5587 74.9369 25.4655C74.9369 28.9841 72.9729 30.6174 72.9729 31.957C72.9729 32.3705 73.3119 32.784 73.99 32.784C76.6942 32.784 79.8738 29.6085 79.8738 25.2753C79.8738 20.942 76.3468 17.75 70.1241 17.75C59.8451 17.75 49.5 28.0869 49.5 41.3471C49.5 51.8907 54.7015 58.25 63.6987 58.25C69.8346 58.25 75.1974 53.4785 78.0876 47.9131C78.4142 52.5275 80.5105 54.9422 83.7067 54.9422C86.5472 54.9422 88.8461 53.2511 90.6034 50.274C91.2774 53.3875 93.0842 54.9091 95.4038 54.9091C98.0749 54.9091 100.312 53.218 102.433 50.0714C102.4 52.5523 102.962 54.8636 105.104 54.8636C106.113 54.8636 107.32 54.6279 107.535 53.7472C109.789 44.4275 115.358 36.8195 117.045 36.8195C117.549 36.8195 117.69 37.3074 117.69 37.8822C117.69 40.4126 115.904 45.6059 115.904 48.9178C115.904 52.4985 117.425 54.8678 120.572 54.8678C124.058 54.8678 127.601 50.6007 129.962 44.3613C130.702 50.1913 132.298 54.8926 134.8 54.8926C137.868 54.8926 143.317 48.4341 146.621 41.5952C148.413 41.859 150.239 41.4303 151.727 40.3961C150.91 42.439 150.482 44.617 150.466 46.8174C150.466 53.1642 153.497 54.9422 156.106 54.9422C158.942 54.9422 161.241 53.2511 163.003 50.274C163.581 52.9575 165.07 54.9008 167.795 54.9008C172.062 54.9008 175.771 50.5387 175.771 46.958C175.787 46.0152 175.382 45.4529 174.911 45.4529ZM86.3157 51.4276C84.5915 51.4276 83.9175 49.691 83.9175 47.1027C83.9175 42.6082 86.9938 35.1119 90.2437 35.1119C91.666 35.1119 92.1994 36.7658 92.1994 38.8331C92.1994 43.3855 89.2761 51.4276 86.3157 51.4276ZM145.36 38.0103C144.402 36.7572 143.907 35.2119 143.958 33.6358C143.958 31.8041 144.628 30.2577 145.43 30.2577C146.232 30.2577 146.48 31.0474 146.48 32.1472C146.476 33.9831 145.819 36.6665 145.36 38.0103ZM158.727 51.4276C157.003 51.4276 156.329 49.4305 156.329 47.1027C156.329 42.7653 159.405 35.1119 162.68 35.1119C164.102 35.1119 164.607 36.7658 164.607 38.8331C164.607 43.3855 161.733 51.4276 158.727 51.4276Z" fill="white"/>
<path d="M174.911 45.4529C174.792 45.4579 174.678 45.5008 174.586 45.5752C174.494 45.6496 174.428 45.7517 174.398 45.8664C173.104 49.5587 171.355 51.7584 169.916 51.7584C169.089 51.7584 168.754 50.8364 168.754 49.3892C168.754 45.7713 170.921 38.1013 172.012 34.6033C172.133 34.2398 172.202 33.8613 172.219 33.4786C172.219 32.4615 171.665 31.9612 170.288 31.9612C168.804 31.9612 167.208 32.54 165.653 35.269C165.115 32.8708 163.495 31.8206 161.225 31.8206C158.603 31.8206 156.073 33.5076 153.989 36.2407C151.905 38.9737 149.441 39.871 147.613 39.4286C148.94 36.1828 149.432 33.7598 149.432 31.957C149.432 29.133 148.039 27.4295 145.781 27.4295C142.354 27.4295 140.377 30.7001 140.377 34.1402C140.377 36.7989 141.585 39.5154 144.235 40.8592C142.011 45.8871 138.769 50.4311 137.537 50.4311C135.945 50.4311 135.469 42.6454 135.569 37.0759C135.627 33.8797 135.891 33.7185 135.891 32.7509C135.891 32.1969 135.531 31.8165 134.084 31.8165C130.714 31.8165 129.672 34.6694 129.511 37.9483C129.461 39.1932 129.267 40.428 128.932 41.6283C127.522 46.6561 124.62 50.4684 122.73 50.4684C121.854 50.4684 121.614 49.5918 121.614 48.4423C121.614 44.8244 123.64 40.3051 123.64 36.4515C123.64 33.6151 122.399 31.8247 120.055 31.8247C117.297 31.8247 113.646 35.1077 110.194 41.2603C111.331 36.5508 111.798 31.9901 108.432 31.9901C107.703 32.0006 106.987 32.1864 106.344 32.5318C106.128 32.6327 105.948 32.7963 105.826 33.0013C105.704 33.2063 105.647 33.4433 105.662 33.6812C105.985 38.6967 101.622 51.5393 97.4836 51.5393C96.7311 51.5393 96.3672 50.7123 96.3672 49.4099C96.3672 45.7837 98.5256 38.1344 99.613 34.6281C99.742 34.2451 99.8144 33.8453 99.828 33.4414C99.828 32.4822 99.2326 31.9901 97.8888 31.9901C96.4127 31.9901 94.8084 32.5525 93.262 35.2731C92.7204 32.875 91.0954 31.8247 88.8296 31.8247C85.1083 31.8247 80.9736 35.7569 79.1295 40.884C76.6859 47.727 71.7614 54.3385 65.1293 54.3385C59.1133 54.3385 55.9378 49.3313 55.9378 41.4215C55.9378 29.9972 64.323 20.665 70.5417 20.665C73.5145 20.665 74.9369 22.5587 74.9369 25.4655C74.9369 28.9841 72.9729 30.6174 72.9729 31.957C72.9729 32.3705 73.3119 32.784 73.99 32.784C76.6942 32.784 79.8738 29.6085 79.8738 25.2753C79.8738 20.942 76.3468 17.75 70.1241 17.75C59.8451 17.75 49.5 28.0869 49.5 41.3471C49.5 51.8907 54.7015 58.25 63.6987 58.25C69.8346 58.25 75.1974 53.4785 78.0876 47.9131C78.4142 52.5275 80.5105 54.9422 83.7067 54.9422C86.5472 54.9422 88.8461 53.2511 90.6034 50.274C91.2774 53.3875 93.0842 54.9091 95.4038 54.9091C98.0749 54.9091 100.312 53.218 102.433 50.0714C102.4 52.5523 102.962 54.8636 105.104 54.8636C106.113 54.8636 107.32 54.6279 107.535 53.7472C109.789 44.4275 115.358 36.8195 117.045 36.8195C117.549 36.8195 117.69 37.3074 117.69 37.8822C117.69 40.4126 115.904 45.6059 115.904 48.9178C115.904 52.4985 117.425 54.8678 120.572 54.8678C124.058 54.8678 127.601 50.6007 129.962 44.3613C130.702 50.1913 132.298 54.8926 134.8 54.8926C137.868 54.8926 143.317 48.4341 146.621 41.5952C148.413 41.859 150.239 41.4303 151.727 40.3961C150.91 42.439 150.482 44.617 150.466 46.8174C150.466 53.1642 153.497 54.9422 156.106 54.9422C158.942 54.9422 161.241 53.2511 163.003 50.274C163.581 52.9575 165.07 54.9008 167.795 54.9008C172.062 54.9008 175.771 50.5387 175.771 46.958C175.787 46.0152 175.382 45.4529 174.911 45.4529ZM86.3157 51.4276C84.5915 51.4276 83.9175 49.691 83.9175 47.1027C83.9175 42.6082 86.9938 35.1119 90.2437 35.1119C91.666 35.1119 92.1994 36.7658 92.1994 38.8331C92.1994 43.3855 89.2761 51.4276 86.3157 51.4276ZM145.36 38.0103C144.402 36.7572 143.907 35.2119 143.958 33.6358C143.958 31.8041 144.628 30.2577 145.43 30.2577C146.232 30.2577 146.48 31.0474 146.48 32.1472C146.476 33.9831 145.819 36.6665 145.36 38.0103ZM158.727 51.4276C157.003 51.4276 156.329 49.4305 156.329 47.1027C156.329 42.7653 159.405 35.1119 162.68 35.1119C164.102 35.1119 164.607 36.7658 164.607 38.8331C164.607 43.3855 161.733 51.4276 158.727 51.4276Z" fill="white"/>
<path d="M174.911 45.4529C174.792 45.4579 174.678 45.5008 174.586 45.5752C174.494 45.6496 174.428 45.7517 174.398 45.8664C173.104 49.5587 171.355 51.7584 169.916 51.7584C169.089 51.7584 168.754 50.8364 168.754 49.3892C168.754 45.7713 170.921 38.1013 172.012 34.6033C172.133 34.2398 172.202 33.8613 172.219 33.4786C172.219 32.4615 171.665 31.9612 170.288 31.9612C168.804 31.9612 167.208 32.54 165.653 35.269C165.115 32.8708 163.495 31.8206 161.225 31.8206C158.603 31.8206 156.073 33.5076 153.989 36.2407C151.905 38.9737 149.441 39.871 147.613 39.4286C148.94 36.1828 149.432 33.7598 149.432 31.957C149.432 29.133 148.039 27.4295 145.781 27.4295C142.354 27.4295 140.377 30.7001 140.377 34.1402C140.377 36.7989 141.585 39.5154 144.235 40.8592C142.011 45.8871 138.769 50.4311 137.537 50.4311C135.945 50.4311 135.469 42.6454 135.569 37.0759C135.627 33.8797 135.891 33.7185 135.891 32.7509C135.891 32.1969 135.531 31.8165 134.084 31.8165C130.714 31.8165 129.672 34.6694 129.511 37.9483C129.461 39.1932 129.267 40.428 128.932 41.6283C127.522 46.6561 124.62 50.4684 122.73 50.4684C121.854 50.4684 121.614 49.5918 121.614 48.4423C121.614 44.8244 123.64 40.3051 123.64 36.4515C123.64 33.6151 122.399 31.8247 120.055 31.8247C117.297 31.8247 113.646 35.1077 110.194 41.2603C111.331 36.5508 111.798 31.9901 108.432 31.9901C107.703 32.0006 106.987 32.1864 106.344 32.5318C106.128 32.6327 105.948 32.7963 105.826 33.0013C105.704 33.2063 105.647 33.4433 105.662 33.6812C105.985 38.6967 101.622 51.5393 97.4836 51.5393C96.7311 51.5393 96.3672 50.7123 96.3672 49.4099C96.3672 45.7837 98.5256 38.1344 99.613 34.6281C99.742 34.2451 99.8144 33.8453 99.828 33.4414C99.828 32.4822 99.2326 31.9901 97.8888 31.9901C96.4127 31.9901 94.8084 32.5525 93.262 35.2731C92.7204 32.875 91.0954 31.8247 88.8296 31.8247C85.1083 31.8247 80.9736 35.7569 79.1295 40.884C76.6859 47.727 71.7614 54.3385 65.1293 54.3385C59.1133 54.3385 55.9378 49.3313 55.9378 41.4215C55.9378 29.9972 64.323 20.665 70.5417 20.665C73.5145 20.665 74.9369 22.5587 74.9369 25.4655C74.9369 28.9841 72.9729 30.6174 72.9729 31.957C72.9729 32.3705 73.3119 32.784 73.99 32.784C76.6942 32.784 79.8738 29.6085 79.8738 25.2753C79.8738 20.942 76.3468 17.75 70.1241 17.75C59.8451 17.75 49.5 28.0869 49.5 41.3471C49.5 51.8907 54.7015 58.25 63.6987 58.25C69.8346 58.25 75.1974 53.4785 78.0876 47.9131C78.4142 52.5275 80.5105 54.9422 83.7067 54.9422C86.5472 54.9422 88.8461 53.2511 90.6034 50.274C91.2774 53.3875 93.0842 54.9091 95.4038 54.9091C98.0749 54.9091 100.312 53.218 102.433 50.0714C102.4 52.5523 102.962 54.8636 105.104 54.8636C106.113 54.8636 107.32 54.6279 107.535 53.7472C109.789 44.4275 115.358 36.8195 117.045 36.8195C117.549 36.8195 117.69 37.3074 117.69 37.8822C117.69 40.4126 115.904 45.6059 115.904 48.9178C115.904 52.4985 117.425 54.8678 120.572 54.8678C124.058 54.8678 127.601 50.6007 129.962 44.3613C130.702 50.1913 132.298 54.8926 134.8 54.8926C137.868 54.8926 143.317 48.4341 146.621 41.5952C148.413 41.859 150.239 41.4303 151.727 40.3961C150.91 42.439 150.482 44.617 150.466 46.8174C150.466 53.1642 153.497 54.9422 156.106 54.9422C158.942 54.9422 161.241 53.2511 163.003 50.274C163.581 52.9575 165.07 54.9008 167.795 54.9008C172.062 54.9008 175.771 50.5387 175.771 46.958C175.787 46.0152 175.382 45.4529 174.911 45.4529ZM86.3157 51.4276C84.5915 51.4276 83.9175 49.691 83.9175 47.1027C83.9175 42.6082 86.9938 35.1119 90.2437 35.1119C91.666 35.1119 92.1994 36.7658 92.1994 38.8331C92.1994 43.3855 89.2761 51.4276 86.3157 51.4276ZM145.36 38.0103C144.402 36.7572 143.907 35.2119 143.958 33.6358C143.958 31.8041 144.628 30.2577 145.43 30.2577C146.232 30.2577 146.48 31.0474 146.48 32.1472C146.476 33.9831 145.819 36.6665 145.36 38.0103ZM158.727 51.4276C157.003 51.4276 156.329 49.4305 156.329 47.1027C156.329 42.7653 159.405 35.1119 162.68 35.1119C164.102 35.1119 164.607 36.7658 164.607 38.8331C164.607 43.3855 161.733 51.4276 158.727 51.4276Z" fill="white"/>
<path d="M174.911 45.4529C174.792 45.4579 174.678 45.5008 174.586 45.5752C174.494 45.6496 174.428 45.7517 174.398 45.8664C173.104 49.5587 171.355 51.7584 169.916 51.7584C169.089 51.7584 168.754 50.8364 168.754 49.3892C168.754 45.7713 170.921 38.1013 172.012 34.6033C172.133 34.2398 172.202 33.8613 172.219 33.4786C172.219 32.4615 171.665 31.9612 170.288 31.9612C168.804 31.9612 167.208 32.54 165.653 35.269C165.115 32.8708 163.495 31.8206 161.225 31.8206C158.603 31.8206 156.073 33.5076 153.989 36.2407C151.905 38.9737 149.441 39.871 147.613 39.4286C148.94 36.1828 149.432 33.7598 149.432 31.957C149.432 29.133 148.039 27.4295 145.781 27.4295C142.354 27.4295 140.377 30.7001 140.377 34.1402C140.377 36.7989 141.585 39.5154 144.235 40.8592C142.011 45.8871 138.769 50.4311 137.537 50.4311C135.945 50.4311 135.469 42.6454 135.569 37.0759C135.627 33.8797 135.891 33.7185 135.891 32.7509C135.891 32.1969 135.531 31.8165 134.084 31.8165C130.714 31.8165 129.672 34.6694 129.511 37.9483C129.461 39.1932 129.267 40.428 128.932 41.6283C127.522 46.6561 124.62 50.4684 122.73 50.4684C121.854 50.4684 121.614 49.5918 121.614 48.4423C121.614 44.8244 123.64 40.3051 123.64 36.4515C123.64 33.6151 122.399 31.8247 120.055 31.8247C117.297 31.8247 113.646 35.1077 110.194 41.2603C111.331 36.5508 111.798 31.9901 108.432 31.9901C107.703 32.0006 106.987 32.1864 106.344 32.5318C106.128 32.6327 105.948 32.7963 105.826 33.0013C105.704 33.2063 105.647 33.4433 105.662 33.6812C105.985 38.6967 101.622 51.5393 97.4836 51.5393C96.7311 51.5393 96.3672 50.7123 96.3672 49.4099C96.3672 45.7837 98.5256 38.1344 99.613 34.6281C99.742 34.2451 99.8144 33.8453 99.828 33.4414C99.828 32.4822 99.2326 31.9901 97.8888 31.9901C96.4127 31.9901 94.8084 32.5525 93.262 35.2731C92.7204 32.875 91.0954 31.8247 88.8296 31.8247C85.1083 31.8247 80.9736 35.7569 79.1295 40.884C76.6859 47.727 71.7614 54.3385 65.1293 54.3385C59.1133 54.3385 55.9378 49.3313 55.9378 41.4215C55.9378 29.9972 64.323 20.665 70.5417 20.665C73.5145 20.665 74.9369 22.5587 74.9369 25.4655C74.9369 28.9841 72.9729 30.6174 72.9729 31.957C72.9729 32.3705 73.3119 32.784 73.99 32.784C76.6942 32.784 79.8738 29.6085 79.8738 25.2753C79.8738 20.942 76.3468 17.75 70.1241 17.75C59.8451 17.75 49.5 28.0869 49.5 41.3471C49.5 51.8907 54.7015 58.25 63.6987 58.25C69.8346 58.25 75.1974 53.4785 78.0876 47.9131C78.4142 52.5275 80.5105 54.9422 83.7067 54.9422C86.5472 54.9422 88.8461 53.2511 90.6034 50.274C91.2774 53.3875 93.0842 54.9091 95.4038 54.9091C98.0749 54.9091 100.312 53.218 102.433 50.0714C102.4 52.5523 102.962 54.8636 105.104 54.8636C106.113 54.8636 107.32 54.6279 107.535 53.7472C109.789 44.4275 115.358 36.8195 117.045 36.8195C117.549 36.8195 117.69 37.3074 117.69 37.8822C117.69 40.4126 115.904 45.6059 115.904 48.9178C115.904 52.4985 117.425 54.8678 120.572 54.8678C124.058 54.8678 127.601 50.6007 129.962 44.3613C130.702 50.1913 132.298 54.8926 134.8 54.8926C137.868 54.8926 143.317 48.4341 146.621 41.5952C148.413 41.859 150.239 41.4303 151.727 40.3961C150.91 42.439 150.482 44.617 150.466 46.8174C150.466 53.1642 153.497 54.9422 156.106 54.9422C158.942 54.9422 161.241 53.2511 163.003 50.274C163.581 52.9575 165.07 54.9008 167.795 54.9008C172.062 54.9008 175.771 50.5387 175.771 46.958C175.787 46.0152 175.382 45.4529 174.911 45.4529ZM86.3157 51.4276C84.5915 51.4276 83.9175 49.691 83.9175 47.1027C83.9175 42.6082 86.9938 35.1119 90.2437 35.1119C91.666 35.1119 92.1994 36.7658 92.1994 38.8331C92.1994 43.3855 89.2761 51.4276 86.3157 51.4276ZM145.36 38.0103C144.402 36.7572 143.907 35.2119 143.958 33.6358C143.958 31.8041 144.628 30.2577 145.43 30.2577C146.232 30.2577 146.48 31.0474 146.48 32.1472C146.476 33.9831 145.819 36.6665 145.36 38.0103ZM158.727 51.4276C157.003 51.4276 156.329 49.4305 156.329 47.1027C156.329 42.7653 159.405 35.1119 162.68 35.1119C164.102 35.1119 164.607 36.7658 164.607 38.8331C164.607 43.3855 161.733 51.4276 158.727 51.4276Z" fill="white"/>
<path d="M174.911 45.4529C174.792 45.4579 174.678 45.5008 174.586 45.5752C174.494 45.6496 174.428 45.7517 174.398 45.8664C173.104 49.5587 171.355 51.7584 169.916 51.7584C169.089 51.7584 168.754 50.8364 168.754 49.3892C168.754 45.7713 170.921 38.1013 172.012 34.6033C172.133 34.2398 172.202 33.8613 172.219 33.4786C172.219 32.4615 171.665 31.9612 170.288 31.9612C168.804 31.9612 167.208 32.54 165.653 35.269C165.115 32.8708 163.495 31.8206 161.225 31.8206C158.603 31.8206 156.073 33.5076 153.989 36.2407C151.905 38.9737 149.441 39.871 147.613 39.4286C148.94 36.1828 149.432 33.7598 149.432 31.957C149.432 29.133 148.039 27.4295 145.781 27.4295C142.354 27.4295 140.377 30.7001 140.377 34.1402C140.377 36.7989 141.585 39.5154 144.235 40.8592C142.011 45.8871 138.769 50.4311 137.537 50.4311C135.945 50.4311 135.469 42.6454 135.569 37.0759C135.627 33.8797 135.891 33.7185 135.891 32.7509C135.891 32.1969 135.531 31.8165 134.084 31.8165C130.714 31.8165 129.672 34.6694 129.511 37.9483C129.461 39.1932 129.267 40.428 128.932 41.6283C127.522 46.6561 124.62 50.4684 122.73 50.4684C121.854 50.4684 121.614 49.5918 121.614 48.4423C121.614 44.8244 123.64 40.3051 123.64 36.4515C123.64 33.6151 122.399 31.8247 120.055 31.8247C117.297 31.8247 113.646 35.1077 110.194 41.2603C111.331 36.5508 111.798 31.9901 108.432 31.9901C107.703 32.0006 106.987 32.1864 106.344 32.5318C106.128 32.6327 105.948 32.7963 105.826 33.0013C105.704 33.2063 105.647 33.4433 105.662 33.6812C105.985 38.6967 101.622 51.5393 97.4836 51.5393C96.7311 51.5393 96.3672 50.7123 96.3672 49.4099C96.3672 45.7837 98.5256 38.1344 99.613 34.6281C99.742 34.2451 99.8144 33.8453 99.828 33.4414C99.828 32.4822 99.2326 31.9901 97.8888 31.9901C96.4127 31.9901 94.8084 32.5525 93.262 35.2731C92.7204 32.875 91.0954 31.8247 88.8296 31.8247C85.1083 31.8247 80.9736 35.7569 79.1295 40.884C76.6859 47.727 71.7614 54.3385 65.1293 54.3385C59.1133 54.3385 55.9378 49.3313 55.9378 41.4215C55.9378 29.9972 64.323 20.665 70.5417 20.665C73.5145 20.665 74.9369 22.5587 74.9369 25.4655C74.9369 28.9841 72.9729 30.6174 72.9729 31.957C72.9729 32.3705 73.3119 32.784 73.99 32.784C76.6942 32.784 79.8738 29.6085 79.8738 25.2753C79.8738 20.942 76.3468 17.75 70.1241 17.75C59.8451 17.75 49.5 28.0869 49.5 41.3471C49.5 51.8907 54.7015 58.25 63.6987 58.25C69.8346 58.25 75.1974 53.4785 78.0876 47.9131C78.4142 52.5275 80.5105 54.9422 83.7067 54.9422C86.5472 54.9422 88.8461 53.2511 90.6034 50.274C91.2774 53.3875 93.0842 54.9091 95.4038 54.9091C98.0749 54.9091 100.312 53.218 102.433 50.0714C102.4 52.5523 102.962 54.8636 105.104 54.8636C106.113 54.8636 107.32 54.6279 107.535 53.7472C109.789 44.4275 115.358 36.8195 117.045 36.8195C117.549 36.8195 117.69 37.3074 117.69 37.8822C117.69 40.4126 115.904 45.6059 115.904 48.9178C115.904 52.4985 117.425 54.8678 120.572 54.8678C124.058 54.8678 127.601 50.6007 129.962 44.3613C130.702 50.1913 132.298 54.8926 134.8 54.8926C137.868 54.8926 143.317 48.4341 146.621 41.5952C148.413 41.859 150.239 41.4303 151.727 40.3961C150.91 42.439 150.482 44.617 150.466 46.8174C150.466 53.1642 153.497 54.9422 156.106 54.9422C158.942 54.9422 161.241 53.2511 163.003 50.274C163.581 52.9575 165.07 54.9008 167.795 54.9008C172.062 54.9008 175.771 50.5387 175.771 46.958C175.787 46.0152 175.382 45.4529 174.911 45.4529ZM86.3157 51.4276C84.5915 51.4276 83.9175 49.691 83.9175 47.1027C83.9175 42.6082 86.9938 35.1119 90.2437 35.1119C91.666 35.1119 92.1994 36.7658 92.1994 38.8331C92.1994 43.3855 89.2761 51.4276 86.3157 51.4276ZM145.36 38.0103C144.402 36.7572 143.907 35.2119 143.958 33.6358C143.958 31.8041 144.628 30.2577 145.43 30.2577C146.232 30.2577 146.48 31.0474 146.48 32.1472C146.476 33.9831 145.819 36.6665 145.36 38.0103ZM158.727 51.4276C157.003 51.4276 156.329 49.4305 156.329 47.1027C156.329 42.7653 159.405 35.1119 162.68 35.1119C164.102 35.1119 164.607 36.7658 164.607 38.8331C164.607 43.3855 161.733 51.4276 158.727 51.4276Z" fill="white"/>
</svg>
