<svg width="225" height="76" viewBox="0 0 225 76" fill="none" xmlns="http://www.w3.org/2000/svg">
<path d="M104.03 45.3272C104.03 51.5734 99.1437 56.1761 93.147 56.1761C87.1504 56.1761 82.264 51.5734 82.264 45.3272C82.264 39.037 87.1504 34.4783 93.147 34.4783C99.1437 34.4783 104.03 39.037 104.03 45.3272ZM99.266 45.3272C99.266 41.424 96.434 38.7533 93.147 38.7533C89.8601 38.7533 87.0281 41.424 87.0281 45.3272C87.0281 49.1914 89.8601 51.9011 93.147 51.9011C96.434 51.9011 99.266 49.1865 99.266 45.3272Z" fill="white"/>
<path d="M127.511 45.3272C127.511 51.5734 122.624 56.1761 116.628 56.1761C110.631 56.1761 105.745 51.5734 105.745 45.3272C105.745 39.0419 110.631 34.4783 116.628 34.4783C122.624 34.4783 127.511 39.037 127.511 45.3272ZM122.747 45.3272C122.747 41.424 119.915 38.7533 116.628 38.7533C113.341 38.7533 110.509 41.424 110.509 45.3272C110.509 49.1914 113.341 51.9011 116.628 51.9011C119.915 51.9011 122.747 49.1865 122.747 45.3272Z" fill="white"/>
<path d="M150.009 35.1338V54.6109C150.009 62.6229 145.284 65.8952 139.698 65.8952C134.44 65.8952 131.275 62.3783 130.082 59.5022L134.23 57.7756C134.968 59.5414 136.778 61.6251 139.693 61.6251C143.269 61.6251 145.484 59.4191 145.484 55.2664V53.706H145.318C144.252 55.0218 142.197 56.1713 139.605 56.1713C134.181 56.1713 129.211 51.4463 129.211 45.3664C129.211 39.2425 134.181 34.4783 139.605 34.4783C142.192 34.4783 144.247 35.6278 145.318 36.9044H145.484V35.1386H150.009V35.1338ZM145.822 45.3664C145.822 41.5463 143.273 38.7533 140.031 38.7533C136.744 38.7533 133.99 41.5463 133.99 45.3664C133.99 49.1473 136.744 51.9011 140.031 51.9011C143.273 51.9011 145.822 49.1473 145.822 45.3664Z" fill="white"/>
<path d="M157.468 23.7179V55.5113H152.822V23.7179H157.468Z" fill="white"/>
<path d="M175.577 48.8975L179.274 51.3627C178.081 53.1285 175.205 56.1709 170.235 56.1709C164.072 56.1709 159.47 51.4067 159.47 45.322C159.47 38.8703 164.111 34.473 169.702 34.473C175.332 34.473 178.086 38.9535 178.986 41.3747L179.48 42.6073L164.977 48.6138C166.088 50.7904 167.814 51.9008 170.235 51.9008C172.661 51.9008 174.344 50.7073 175.577 48.8975ZM164.195 44.9942L173.889 40.9687C173.356 39.6138 171.752 38.6698 169.864 38.6698C167.442 38.6698 164.072 40.8073 164.195 44.9942Z" fill="white"/>
<path d="M64.675 42.5045V37.9018H80.1851C80.3367 38.704 80.415 39.6529 80.415 40.68C80.415 44.1333 79.471 48.4034 76.4286 51.4458C73.4694 54.5273 69.6885 56.1708 64.6798 56.1708C55.3963 56.1708 47.5898 48.6088 47.5898 39.3251C47.5898 30.0414 55.3963 22.4795 64.6798 22.4795C69.8157 22.4795 73.4743 24.4947 76.2232 27.1213L72.9754 30.3692C71.0042 28.5203 68.3336 27.0822 64.675 27.0822C57.8957 27.0822 52.5936 32.5458 52.5936 39.3251C52.5936 46.1045 57.8957 51.5681 64.675 51.5681C69.0722 51.5681 71.5765 49.8023 73.1808 48.198C74.4819 46.8969 75.3379 45.0382 75.6754 42.4996L64.675 42.5045Z" fill="white"/>
</svg>
