<svg width="225" height="76" viewBox="0 0 225 76" fill="none" xmlns="http://www.w3.org/2000/svg">
<path fill-rule="evenodd" clip-rule="evenodd" d="M85.8965 44.0443L85.8648 43.6206H85.4399H82.8027H82.3257L82.3452 44.0972C82.5628 49.4071 86.1427 52.9241 92.5092 52.9241C98.5812 52.9241 102.71 49.7693 102.71 44.9941C102.71 42.4121 101.814 40.5848 100.107 39.3369C98.7942 38.377 97.2242 37.836 94.6207 37.2715C94.4468 37.2337 94.2655 37.1951 94.0482 37.1494C93.9192 37.1223 93.4562 37.0254 93.4808 37.0305C88.7528 36.0393 87.253 35.1783 87.253 32.6139C87.253 29.9622 89.4215 28.2735 93.0586 28.2735C96.5971 28.2735 98.8335 30.4346 98.9376 33.8366L98.9512 34.2805H99.3953H101.996H102.464L102.454 33.8121C102.331 28.5092 98.7732 24.9404 93.0219 24.9404C87.3853 24.9404 83.6634 28.3321 83.6634 32.7238C83.6634 35.2986 84.5583 37.0916 86.268 38.2896C87.5705 39.2022 89.0793 39.6861 91.7409 40.2234C91.8656 40.2486 91.9956 40.2746 92.1505 40.3053C92.2463 40.3243 92.3545 40.3457 92.5577 40.3859C95.076 40.8842 96.1872 41.1917 97.2009 41.7812C98.4594 42.5129 99.0839 43.5582 99.0839 45.1773C99.0839 47.9884 96.7203 49.5909 92.5824 49.5909C88.621 49.5909 86.1627 47.6043 85.8965 44.0443ZM110.127 24.4825V24.0247H109.669H107.069H106.611V24.4825V51.9534V52.4113H107.069H109.669H110.127V51.9534V47.0554L113.829 43.4506L120.439 52.2288L120.576 52.4113H120.804H124.028H124.95L124.392 51.6766L116.32 41.0438L123.765 33.6343L124.551 32.852H123.442H119.962H119.771L119.637 32.9872L110.127 42.5646V24.4825ZM142.983 43.8404H143.413L143.44 43.4111C143.444 43.3356 143.451 43.2108 143.458 43.0604C143.464 42.9414 143.469 42.8254 143.472 42.7157C143.475 42.5969 143.477 42.4888 143.477 42.3936C143.477 36.6468 139.671 32.4124 134.046 32.4124C128.431 32.4124 124.431 36.9198 124.431 42.6133C124.431 48.4721 128.249 52.8508 134.082 52.8508C138.492 52.8508 141.9 50.2341 143.127 46.2649L143.311 45.6717H142.69H139.979H139.656L139.548 45.9765C138.777 48.149 136.69 49.5909 134.119 49.5909C130.758 49.5909 128.414 47.2826 127.992 43.8404H142.983ZM128.099 40.8002C128.692 37.7181 130.959 35.6723 134.046 35.6723C137.227 35.6723 139.422 37.651 139.902 40.8002H128.099ZM155.015 35.9654H155.473V35.5075V33.3098V32.852H155.015H151.187V27.9988V27.5409H150.73H148.129H147.671V27.9988V32.852H144.576H144.118V33.3098V35.5075V35.9654H144.576H147.671V46.9354C147.671 50.5341 149.538 52.4845 152.964 52.4845C153.562 52.4845 154.077 52.4487 154.51 52.3886C154.778 52.3515 154.963 52.313 155.064 52.2847L155.4 52.1916V51.8435V49.4994V48.9313L154.845 49.052C154.822 49.0568 154.777 49.0659 154.713 49.078C154.604 49.0984 154.483 49.1188 154.353 49.138C154.02 49.1869 153.69 49.2183 153.386 49.2238C153.355 49.2244 153.324 49.2247 153.294 49.2247C151.793 49.2247 151.187 48.5197 151.187 46.7523V35.9654H155.015ZM165.949 52.8508C170.816 52.8508 174.252 49.7709 175.115 45.4127L175.224 44.8659H174.666H172.029H171.677L171.586 45.2062C170.847 47.9874 168.84 49.5909 165.949 49.5909C162.34 49.5909 159.85 46.7441 159.85 42.6499C159.85 38.5241 162.335 35.6723 165.949 35.6723C168.84 35.6723 170.847 37.2759 171.586 40.0571L171.677 40.3973H172.029H174.666H175.224L175.115 39.8505C174.252 35.4923 170.816 32.4124 165.949 32.4124C160.295 32.4124 156.297 36.9516 156.297 42.6499C156.297 48.3169 160.3 52.8508 165.949 52.8508ZM181.699 24.4825V24.0247H181.241H178.64H178.182V24.4825V51.9534V52.4113H178.64H181.241H181.699V51.9534V40.9284C181.699 37.5693 183.743 35.5991 186.845 35.5991C189.807 35.5991 191.295 37.314 191.295 40.5622V51.9534V52.4113H191.753H194.354H194.812V51.9534V40.0494C194.812 35.4611 191.971 32.4124 187.285 32.4124C184.874 32.4124 182.936 33.2957 181.699 34.5633V24.4825Z" fill="white"/>
<path fill-rule="evenodd" clip-rule="evenodd" d="M39.1148 20.4847L50.8882 19.25L62.6615 20.4847L71.7764 32.6219L50.8882 56.75L30 32.6219L39.1148 20.4847Z" fill="white"/>
<path fill-rule="evenodd" clip-rule="evenodd" d="M38.4609 32.6218L50.8882 56.75L30 32.6219L38.4609 32.6218Z" fill="white"/>
<path fill-rule="evenodd" clip-rule="evenodd" d="M63.3152 32.6218L50.8882 56.75L71.7764 32.6219L63.3152 32.6218Z" fill="white"/>
<path fill-rule="evenodd" clip-rule="evenodd" d="M38.4624 32.6218H63.3172L50.8898 56.75L38.4624 32.6218Z" fill="white"/>
<path fill-rule="evenodd" clip-rule="evenodd" d="M50.8895 19.25L39.1162 20.4844L38.4624 32.6218L50.8895 19.25Z" fill="white"/>
<path fill-rule="evenodd" clip-rule="evenodd" d="M50.8895 19.25L62.6629 20.4844L63.3172 32.6218L50.8895 19.25Z" fill="white"/>
<path fill-rule="evenodd" clip-rule="evenodd" d="M71.7756 32.6218L62.6615 20.4847L63.3152 32.6218L71.7756 32.6218Z" fill="white"/>
<path fill-rule="evenodd" clip-rule="evenodd" d="M30 32.6219L39.1148 20.4847L38.4609 32.6218L30 32.6219Z" fill="white"/>
<path fill-rule="evenodd" clip-rule="evenodd" d="M50.8895 19.25L38.4624 32.6218H63.3172L50.8895 19.25Z" fill="white"/>
</svg>
