<svg xmlns="http://www.w3.org/2000/svg" width="80" height="80" fill="none"><g clip-path="url(#a)"><path fill="#003BA4" d="M40 17.5C15 17.5 5 40 5 40s10 22.5 35 22.5S75 40 75 40 65 17.5 40 17.5Zm0 35a12.5 12.5 0 1 1 0-25 12.5 12.5 0 0 1 0 25Z" opacity=".2"/><path stroke="#003BA4" stroke-linecap="round" stroke-linejoin="round" stroke-width="3" d="M40 17.5C15 17.5 5 40 5 40s10 22.5 35 22.5S75 40 75 40 65 17.5 40 17.5Z"/><path stroke="#003BA4" stroke-linecap="round" stroke-linejoin="round" stroke-width="3" d="M40 52.5c6.904 0 12.5-5.596 12.5-12.5S46.904 27.5 40 27.5 27.5 33.096 27.5 40 33.096 52.5 40 52.5Z"/></g><defs><clipPath id="a"><path fill="#fff" d="M0 0h80v80H0z"/></clipPath></defs></svg>