<svg width="100" height="100" viewBox="0 0 100 100" fill="none" xmlns="http://www.w3.org/2000/svg">
<g clip-path="url(#clip0_119_997)">
<path opacity="0.2" d="M9.375 37.5H90.625V75C90.625 75.8288 90.2958 76.6237 89.7097 77.2097C89.1237 77.7958 88.3288 78.125 87.5 78.125H12.5C11.6712 78.125 10.8763 77.7958 10.2903 77.2097C9.70424 76.6237 9.375 75.8288 9.375 75V37.5Z" fill="#003BA4"/>
<path d="M87.5 21.875H12.5C10.7741 21.875 9.375 23.2741 9.375 25V75C9.375 76.7259 10.7741 78.125 12.5 78.125H87.5C89.2259 78.125 90.625 76.7259 90.625 75V25C90.625 23.2741 89.2259 21.875 87.5 21.875Z" stroke="#003BA4" stroke-width="2" stroke-linecap="round" stroke-linejoin="round"/>
<path d="M65.625 65.625H78.125" stroke="#003BA4" stroke-width="2" stroke-linecap="round" stroke-linejoin="round"/>
<path d="M46.875 65.625H53.125" stroke="#003BA4" stroke-width="2" stroke-linecap="round" stroke-linejoin="round"/>
<path d="M9.375 37.5H90.625" stroke="#003BA4" stroke-width="2" stroke-linecap="round" stroke-linejoin="round"/>
</g>
<defs>
<clipPath id="clip0_119_997">
<rect width="100" height="100" fill="white"/>
</clipPath>
</defs>
</svg>
