<svg width="100" height="100" viewBox="0 0 100 100" fill="none" xmlns="http://www.w3.org/2000/svg">
<g clip-path="url(#clip0_118_954)">
<path opacity="0.2" d="M62.7774 54.789C62.4053 54.5622 61.9904 54.4146 61.5586 54.3554L52.6446 53.1523C51.9751 53.0616 51.2942 53.1904 50.7041 53.5193C50.1139 53.8482 49.6462 54.3594 49.3711 54.9765L44.0196 66.9843C43.7708 67.5431 43.6916 68.1626 43.7916 68.766C43.8915 69.3694 44.1664 69.9302 44.5821 70.3788L52.293 78.3202C52.6273 78.6796 52.8722 79.1127 53.0079 79.5843C53.1436 80.056 53.1664 80.553 53.0743 81.0351L51.836 87.457C58.3681 87.1391 64.7035 85.1186 70.2134 81.5958C75.7234 78.073 80.2162 73.1705 83.2461 67.3749L62.7774 54.789Z" fill="#003BA4"/>
<path d="M50 87.5C70.7107 87.5 87.5 70.7107 87.5 50C87.5 29.2893 70.7107 12.5 50 12.5C29.2893 12.5 12.5 29.2893 12.5 50C12.5 70.7107 29.2893 87.5 50 87.5Z" stroke="#003BA4" stroke-width="2" stroke-linecap="round" stroke-linejoin="round"/>
<path d="M29.6406 48.1484L34.8437 39.0625C35.1184 38.5868 35.5136 38.1918 35.9896 37.9175C36.4655 37.6432 37.0054 37.4992 37.5547 37.5H44.082C44.6098 37.5009 45.1289 37.3664 45.5898 37.1094L50.3906 34.4687C50.6018 34.3551 50.7975 34.2146 50.9727 34.0508L61.4883 24.5469C62.0115 24.071 62.3578 23.4317 62.4706 22.7336C62.5834 22.0354 62.4561 21.3196 62.1094 20.7031L58.0078 13.3555" stroke="#003BA4" stroke-width="2" stroke-linecap="round" stroke-linejoin="round"/>
<path d="M26.4764 20.793L21.8748 31.6719C21.564 32.4083 21.5472 33.2359 21.8279 33.9844L26.3201 45.9648C26.5047 46.4543 26.8092 46.8897 27.2057 47.2309C27.6023 47.5722 28.0781 47.8084 28.5897 47.918L36.9607 49.7188C37.425 49.8183 37.8605 50.0224 38.2342 50.3155C38.6078 50.6086 38.9097 50.9829 39.117 51.4102L40.6014 54.4844C40.8574 55.0125 41.257 55.4579 41.7544 55.7694C42.2518 56.081 42.8269 56.2462 43.4139 56.2461H48.8045" stroke="#003BA4" stroke-width="2" stroke-linecap="round" stroke-linejoin="round"/>
<path opacity="0.2" d="M29.6404 48.1485L34.8436 39.0625C35.1182 38.5868 35.5134 38.1919 35.9894 37.9176C36.4653 37.6432 37.0052 37.4992 37.5545 37.5H44.0818C44.6096 37.5009 45.1287 37.3664 45.5897 37.1094L50.3904 34.4688C50.6017 34.3551 50.7973 34.2147 50.9725 34.0508L61.4881 24.5469C62.0113 24.0711 62.3576 23.4318 62.4704 22.7336C62.5832 22.0354 62.4559 21.3196 62.1092 20.7032L58.0076 13.3555C55.3765 12.7856 52.692 12.4988 49.9998 12.5C41.44 12.487 33.1355 15.4147 26.4764 20.793L21.8748 31.6719C21.564 32.4084 21.5472 33.236 21.8279 33.9844L26.3201 45.9649C26.5047 46.4544 26.8092 46.8897 27.2057 47.231C27.6023 47.5722 28.0781 47.8084 28.5897 47.918L29.6404 48.1485Z" fill="#003BA4"/>
<path d="M83.2383 67.3749L62.7774 54.789C62.4053 54.5622 61.9904 54.4146 61.5586 54.3554L52.6446 53.1523C51.9751 53.0616 51.2942 53.1904 50.7041 53.5193C50.1139 53.8482 49.6462 54.3594 49.3711 54.9765L44.0196 66.9843C43.7708 67.5431 43.6916 68.1626 43.7916 68.766C43.8915 69.3694 44.1664 69.9302 44.5821 70.3788L52.293 78.3202C52.6273 78.6796 52.8722 79.1127 53.0079 79.5843C53.1436 80.056 53.1664 80.553 53.0743 81.0351L51.836 87.457" stroke="#003BA4" stroke-width="2" stroke-linecap="round" stroke-linejoin="round"/>
</g>
<defs>
<clipPath id="clip0_118_954">
<rect width="100" height="100" fill="white"/>
</clipPath>
</defs>
</svg>
