<svg width="100" height="100" viewBox="0 0 100 100" fill="none" xmlns="http://www.w3.org/2000/svg">
<g clip-path="url(#clip0_110_740)">
<path opacity="0.2" d="M64.5938 48.0664C75.1406 38.8398 87.5 25.3164 87.5 12.5C74.6836 12.5 61.1602 24.8594 51.9531 35.4062C57.2531 38.3804 61.6278 42.7618 64.5938 48.0664Z" fill="#003BA4"/>
<path d="M6.25 84.375H35.9375C39.9549 84.375 43.8821 83.1837 47.2225 80.9517C50.5629 78.7198 53.1664 75.5474 54.7038 71.8358C56.2412 68.1241 56.6435 64.04 55.8597 60.0997C55.0759 56.1595 53.1414 52.5402 50.3006 49.6994C47.4598 46.8586 43.8405 44.9241 39.9003 44.1403C35.96 43.3565 31.8759 43.7588 28.1642 45.2962C24.4526 46.8336 21.2802 49.4371 19.0483 52.7775C16.8163 56.1179 15.625 60.0451 15.625 64.0625C15.625 78.125 6.25 84.375 6.25 84.375Z" stroke="#003BA4" stroke-width="2" stroke-linecap="round" stroke-linejoin="round"/>
<path d="M43.9102 45.375C51.4063 35.2695 70.1016 12.5 87.5 12.5C87.5 29.8984 64.7305 48.5937 54.625 56.0898" stroke="#003BA4" stroke-width="2" stroke-linecap="round" stroke-linejoin="round"/>
<path d="M51.9531 35.4062C57.2603 38.3775 61.642 42.7592 64.6133 48.0664" stroke="#003BA4" stroke-width="2" stroke-linecap="round" stroke-linejoin="round"/>
</g>
<defs>
<clipPath id="clip0_110_740">
<rect width="100" height="100" fill="white"/>
</clipPath>
</defs>
</svg>
