<svg xmlns="http://www.w3.org/2000/svg" width="64" height="64" fill="none"><g clip-path="url(#a)"><path fill="#003BA4" d="M27 36H10a2 2 0 0 1-2-2V18a2 2 0 0 1 2-2h15a2 2 0 0 1 2 2v18ZM56 36H39a2 2 0 0 1-2-2V18a2 2 0 0 1 2-2h15a2 2 0 0 1 2 2v18Z" opacity=".2"/><path stroke="#003BA4" stroke-linecap="round" stroke-linejoin="round" stroke-width="3" d="M27 36H10a2 2 0 0 1-2-2V18a2 2 0 0 1 2-2h15a2 2 0 0 1 2 2v22a10 10 0 0 1-10 10M56 36H39a2 2 0 0 1-2-2V18a2 2 0 0 1 2-2h15a2 2 0 0 1 2 2v22a10 10 0 0 1-10 10"/></g><defs><clipPath id="a"><path fill="#fff" d="M0 0h64v64H0z"/></clipPath></defs></svg>